<?xml version="1.0" standalone="no"?>
<!DOCTYPE svg PUBLIC "-//W3C//DTD SVG 20010904//EN"
 "http://www.w3.org/TR/2001/REC-SVG-20010904/DTD/svg10.dtd">
<svg version="1.0" xmlns="http://www.w3.org/2000/svg"
 width="260.000000pt" height="260.000000pt" viewBox="0 0 260.000000 260.000000"
 preserveAspectRatio="xMidYMid meet">
<metadata>
Created by potrace 1.11, written by Peter Selinger 2001-2013
</metadata>
<g transform="translate(0.000000,260.000000) scale(0.100000,-0.100000)"
fill="#000000" stroke="none">
<path d="M0 1300 l0 -1300 1300 0 1300 0 0 1300 0 1300 -1300 0 -1300 0 0
-1300z m1605 687 c252 -89 375 -252 375 -497 0 -198 -82 -347 -242 -443 l-58
-34 111 -159 c61 -88 136 -194 166 -236 l54 -78 -185 0 -185 0 -142 205 -142
205 -158 0 -159 0 0 -205 0 -205 -170 0 -170 0 0 741 0 740 413 -3 412 -3 80
-28z"/>
<path d="M1040 1485 l0 -255 183 0 c214 0 266 11 329 68 57 52 78 101 78 190
0 126 -56 202 -176 238 -33 10 -100 14 -231 14 l-183 0 0 -255z"/>
</g>
</svg>
