<svg width="24" height="24" viewBox="0 0 24 24" fill="none" xmlns="http://www.w3.org/2000/svg">
<rect width="24" height="24" fill="#008DF6"/>
<path d="M14.522 18L12.092 14.49H11.948H9.41V18H6.494V5.4H11.948C13.064 5.4 14.03 5.586 14.846 5.958C15.674 6.33 16.31 6.858 16.754 7.542C17.198 8.226 17.42 9.036 17.42 9.972C17.42 10.908 17.192 11.718 16.736 12.402C16.292 13.074 15.656 13.59 14.828 13.95L17.654 18H14.522ZM14.468 9.972C14.468 9.264 14.24 8.724 13.784 8.352C13.328 7.968 12.662 7.776 11.786 7.776H9.41V12.168H11.786C12.662 12.168 13.328 11.976 13.784 11.592C14.24 11.208 14.468 10.668 14.468 9.972Z" fill="white"/>
</svg>
